/* XPM */
static const char* bmpIcon16[] = {
/* columns rows colors chars-per-pixel */
"16 16 52 1 ",
"  c #1B1B1B",
". c #1D1D1D",
"X c #202020",
"o c #222222",
"O c #232323",
"+ c gray14",
"@ c #252525",
"# c #272727",
"$ c #282828",
"% c gray16",
"& c gray17",
"* c #2C2C2C",
"= c #2D2D2D",
"- c gray19",
"; c #313131",
": c #323232",
"> c #343434",
", c #353535",
"< c gray21",
"1 c #373737",
"2 c gray22",
"3 c #393939",
"4 c #3A3A3A",
"5 c #3F3F3F",
"6 c #434343",
"7 c #494949",
"8 c gray32",
"9 c gray33",
"0 c #565656",
"q c gray35",
"w c #5B5B5B",
"e c #5F5F5F",
"r c #626262",
"t c #646464",
"y c #656565",
"u c #686868",
"i c #6A6A6A",
"p c #6C6C6C",
"a c gray54",
"s c gray55",
"d c gray56",
"f c gray59",
"g c gray60",
"h c #9A9A9A",
"j c #9B9B9B",
"k c gray61",
"l c #9F9F9F",
"z c #A2A2A2",
"x c gray64",
"c c #A4A4A4",
"v c #A5A5A5",
"b c None",
/* pixels */
"bb,<,,,,1$ebbbbb",
"bb,<,,,,2Oyjbbbb",
"bb,<,,,,2@rxkbbb",
"bb,<,,,,<;7uitbb",
"bb,<,,,,,<;Oo@bb",
"bb,<,,,,,,<232bb",
"bb,<,,,,,,,,<,bb",
"bb,<,<<<<<<,<,bb",
"bb,<,:,11>:<<,bb",
"bb,<>5>=*25=1,bb",
"bb2+ejfsahguX3bb",
"bb3 ivlcczd0&1bb",
"bb<:6pw89q-#2,bb",
"bb,1;.#&&%11,,bb",
"bb,<<42122<,<,bb",
"bb,<,,,,,,,,<,bb"
};
