/* XPM */
static const char* aiIcon16[] = {
/* columns rows colors chars-per-pixel */
"16 16 37 1 ",
"  c #1E1E1E",
". c #222222",
"X c #232323",
"o c #252525",
"O c #282828",
"+ c gray18",
"@ c #2F2F2F",
"# c #313131",
"$ c #323232",
"% c gray20",
"& c #343434",
"* c #353535",
"= c gray21",
"- c #373737",
"; c gray22",
": c #393939",
"> c #3A3A3A",
", c gray27",
"< c #494949",
"1 c #4C4C4C",
"2 c gray31",
"3 c #5F5F5F",
"4 c #606060",
"5 c #626262",
"6 c gray39",
"7 c #646464",
"8 c #656565",
"9 c #686868",
"0 c #6A6A6A",
"q c gray49",
"w c #959595",
"e c #9B9B9B",
"r c gray61",
"t c gray63",
"y c gray64",
"u c #A5A5A5",
"i c None",
/* pixels */
"ii*=****-O3iiiii",
"ii*=****;X8eiiii",
"ii*=****;o5yriii",
"ii*=****=#<907ii",
"ii*=*****=#X.oii",
"ii*=******=;:;ii",
"ii*=********=*ii",
"ii*=***==***=*ii",
"ii*=**===***=*ii",
"ii*=*=&%$***=*ii",
"ii*=**=wq6.:=*ii",
"ii*=: 9ut0 >=*ii",
"ii*==@214,#==*ii",
"ii*=*-++o#=*=*ii",
"ii*=**--;=**=*ii",
"ii*=********=*ii"
};
