/* XPM */
static const char* aviIcon16[] = {
/* columns rows colors chars-per-pixel */
"16 16 47 1 ",
"  c #1E1E1E",
". c gray13",
"X c #222222",
"o c #232323",
"O c #252525",
"+ c gray15",
"@ c #282828",
"# c #2C2C2C",
"$ c #2D2D2D",
"% c gray18",
"& c gray19",
"* c #313131",
"= c #323232",
"- c #343434",
"; c #353535",
": c gray21",
"> c #373737",
", c gray22",
"< c #393939",
"1 c #3A3A3A",
"2 c gray27",
"3 c #494949",
"4 c gray30",
"5 c #4E4E4E",
"6 c #505050",
"7 c #515151",
"8 c #5D5D5D",
"9 c gray37",
"0 c #5F5F5F",
"q c #626262",
"w c #646464",
"e c #656565",
"r c #676767",
"t c #686868",
"y c #6A6A6A",
"u c gray44",
"i c #808080",
"p c #8D8D8D",
"a c gray58",
"s c #959595",
"d c gray59",
"f c #9B9B9B",
"g c gray61",
"h c #A0A0A0",
"j c gray64",
"k c gray66",
"l c None",
/* pixels */
"ll;:;;;;>@0lllll",
"ll;:;;;;,oefllll",
"ll;:;;;;,Oqjglll",
"ll;:;;;;:*3tywll",
"ll;:;;;;;:*oXOll",
"ll;:;;;;;;:,<,ll",
"ll;:;;;;;;;;:;ll",
"ll;:;;::;:;;:;ll",
"ll;:;::;>;;;:;ll",
"ll;:;-=;%-;;:;ll",
"ll;:>&aius8+<;ll",
"ll;<.qkphdr 1;ll",
"ll;>%476952&>;ll",
"ll;::%#$O$*::;ll",
"ll;:;>>>,>:;:;ll",
"ll;:;;;;;;;;:;ll"
};
