/* XPM */
static const char* bmpIcon48[] = {
/* columns rows colors chars-per-pixel */
"48 48 122 2 ",
"   c black",
".  c #0C0C0C",
"X  c #101010",
"o  c gray8",
"O  c #151515",
"+  c gray9",
"@  c gray10",
"#  c gray11",
"$  c #202020",
"%  c #222222",
"&  c gray14",
"*  c gray15",
"=  c #282828",
"-  c gray16",
";  c #2A2A2A",
":  c gray17",
">  c #2C2C2C",
",  c gray18",
"<  c #2F2F2F",
"1  c gray19",
"2  c #313131",
"3  c #323232",
"4  c gray20",
"5  c #343434",
"6  c #353535",
"7  c gray21",
"8  c #373737",
"9  c gray22",
"0  c #393939",
"q  c #3A3A3A",
"w  c gray23",
"e  c #3C3C3C",
"r  c gray24",
"t  c #3E3E3E",
"y  c #3F3F3F",
"u  c gray25",
"i  c #414141",
"p  c gray26",
"a  c #434343",
"s  c gray27",
"d  c #494949",
"f  c #4B4B4B",
"g  c #4C4C4C",
"h  c gray30",
"j  c #4E4E4E",
"k  c gray33",
"l  c gray37",
"z  c #606060",
"x  c #626262",
"c  c gray39",
"v  c #646464",
"b  c #656565",
"n  c #6D6D6D",
"m  c gray43",
"M  c gray45",
"N  c #767676",
"B  c #818181",
"V  c gray51",
"C  c #838383",
"Z  c #848484",
"A  c gray52",
"S  c #868686",
"D  c gray53",
"F  c gray54",
"G  c #8D8D8D",
"H  c #8E8E8E",
"J  c gray56",
"K  c #909090",
"L  c gray57",
"P  c #929292",
"I  c #939393",
"U  c gray58",
"Y  c #959595",
"T  c gray59",
"R  c #979797",
"E  c #989898",
"W  c gray60",
"Q  c #9A9A9A",
"!  c #9B9B9B",
"~  c gray61",
"^  c #9D9D9D",
"/  c gray62",
"(  c #9F9F9F",
")  c #A2A2A2",
"_  c #A4A4A4",
"`  c #A5A5A5",
"'  c gray65",
"]  c #A7A7A7",
"[  c gray66",
"{  c gray67",
"}  c #ACACAC",
"|  c gray68",
" . c #AEAEAE",
".. c #AFAFAF",
"X. c gray69",
"o. c #B1B1B1",
"O. c #B2B2B2",
"+. c gray70",
"@. c #B4B4B4",
"#. c gray71",
"$. c #B6B6B6",
"%. c gray72",
"&. c #B9B9B9",
"*. c #BBBBBB",
"=. c #BCBCBC",
"-. c gray74",
";. c gray75",
":. c #C0C0C0",
">. c gray76",
",. c #C3C3C3",
"<. c #C6C6C6",
"1. c gray78",
"2. c #C8C8C8",
"3. c gray79",
"4. c #CACACA",
"5. c gray80",
"6. c #CDCDCD",
"7. c #D0D0D0",
"8. c gray82",
"9. c gray83",
"0. c gray86",
"q. c None",
/* pixels */
"q.q.q.q.q.q.3 4 9 q 3 4 4 q 9 3 4 6 w 6 3 4 8 q 4 4 4 0 9 5 , p S q.q.q.q.q.q.q.q.q.q.q.q.q.q.q.",
"q.q.q.q.q.q.5 3 3 9 q 3 3 4 q 9 3 3 6 w 6 3 3 9 w 4 3 4 q q , 6 ~ W q.q.q.q.q.q.q.q.q.q.q.q.q.q.",
"q.q.q.q.q.q.w 5 3 3 9 q 3 3 4 q 9 3 3 6 w 6 3 3 8 w 4 4 3 e 7 6 J [ U q.q.q.q.q.q.q.q.q.q.q.q.q.",
"q.q.q.q.q.q.6 w 5 3 3 9 q 3 3 4 w 8 3 3 6 w 6 3 3 9 q 4 3 6 8 e K ~ ` R q.q.q.q.q.q.q.q.q.q.q.q.",
"q.q.q.q.q.q.3 7 w 5 3 3 9 q 3 3 4 q 9 3 3 6 w 6 3 3 9 q 4 6 1 r K ~ E ` T q.q.q.q.q.q.q.q.q.q.q.",
"q.q.q.q.q.q.3 3 7 w 5 3 3 9 q 3 3 4 w 9 3 3 6 w 6 3 3 8 q 6 < 8 J ! W W ' T q.q.q.q.q.q.q.q.q.q.",
"q.q.q.q.q.q.7 3 3 7 w 5 3 3 9 q 3 3 4 w 8 3 3 6 w 6 3 3 8 e 1 7 J ! E W Q ` R q.q.q.q.q.q.q.q.q.",
"q.q.q.q.q.q.w 8 3 3 7 w 5 3 3 9 q 3 3 4 q 9 3 3 6 w 6 3 3 0 9 7 J ! E W W E ` T q.q.q.q.q.q.q.q.",
"q.q.q.q.q.q.4 w 8 3 3 7 w 5 3 3 9 q 3 3 4 w 9 3 3 6 w 6 3 5 6 t L ~ W Q Q ! Q ] E q.q.q.q.q.q.q.",
"q.q.q.q.q.q.3 4 w 8 3 3 7 w 5 3 3 9 q 3 3 4 w 8 3 3 6 w 6 5 < q G R U Y Y T Y T ) K q.q.q.q.q.q.",
"q.q.q.q.q.q.4 3 4 w 8 3 3 7 w 5 3 3 9 q 3 3 4 q 9 3 3 6 w 6 3 3 s f s s s d d a s h q.q.q.q.q.q.",
"q.q.q.q.q.q.0 3 3 4 w 8 3 3 7 w 5 3 3 9 q 3 3 4 w 9 3 3 6 w 6 3 : 1 4 ; ; ; 3 2 - = q.q.q.q.q.q.",
"q.q.q.q.q.q.0 0 3 3 4 w 8 3 3 7 w 5 3 3 9 q 3 3 4 w 8 3 3 6 w 6 6 7 w r 7 7 7 r e 6 q.q.q.q.q.q.",
"q.q.q.q.q.q.3 0 0 3 3 4 w 8 3 3 7 w 5 3 3 9 q 3 3 4 w 9 3 3 6 w 6 3 3 8 q 4 3 3 q 9 q.q.q.q.q.q.",
"q.q.q.q.q.q.3 3 0 0 3 3 4 w 8 3 3 7 w 5 3 3 9 q 3 3 4 q 9 3 3 6 w 6 3 3 8 w 4 3 4 0 q.q.q.q.q.q.",
"q.q.q.q.q.q.5 4 3 0 0 3 3 4 w 8 3 3 7 w 5 3 3 9 q 3 4 4 q 9 3 3 6 w 6 3 3 9 q 4 4 4 q.q.q.q.q.q.",
"q.q.q.q.q.q.w 5 3 3 0 0 3 3 4 w 8 3 3 7 w 5 3 3 9 q 3 4 4 q 9 3 3 6 w 6 3 3 9 q 4 3 q.q.q.q.q.q.",
"q.q.q.q.q.q.7 w 4 3 3 0 0 3 3 4 w 8 3 3 7 w 5 3 3 9 q 3 4 4 q 9 3 3 6 w 6 3 3 8 w 3 q.q.q.q.q.q.",
"q.q.q.q.q.q.3 8 w 4 3 3 0 0 3 3 4 w 8 3 3 7 w 5 3 3 9 q 3 4 4 q 9 3 3 6 w 6 3 3 9 q q.q.q.q.q.q.",
"q.q.q.q.q.q.3 3 7 w 4 3 3 0 0 3 3 4 w 8 3 3 7 w 5 3 3 9 q 3 4 4 q 9 3 3 6 w 6 3 3 8 q.q.q.q.q.q.",
"q.q.q.q.q.q.7 3 3 7 w 4 3 3 0 0 3 3 4 w 8 3 3 7 w 5 3 3 9 q 3 4 4 q 9 3 3 6 w 6 3 3 q.q.q.q.q.q.",
"q.q.q.q.q.q.w 7 3 3 7 w 4 3 3 0 0 3 3 4 w 8 3 3 7 w 5 3 3 9 q 3 4 4 q 9 3 3 6 w 6 3 q.q.q.q.q.q.",
"q.q.q.q.q.q.5 w 7 3 3 7 w 4 3 3 0 0 3 3 4 w 8 3 3 7 w 5 3 3 9 q 3 4 4 q 9 3 3 6 w 6 q.q.q.q.q.q.",
"q.q.q.q.q.q.3 5 w 7 3 3 7 w 4 3 3 0 0 3 3 4 w 8 3 3 7 w 5 3 3 9 q 3 4 4 q 9 3 3 6 w q.q.q.q.q.q.",
"q.q.q.q.q.q.3 3 5 w 7 3 3 7 w 4 3 3 0 0 3 3 4 w 8 3 3 7 w 5 3 3 9 q 3 4 4 q 8 3 3 6 q.q.q.q.q.q.",
"q.q.q.q.q.q.9 3 3 5 w 7 3 3 7 w 4 3 3 0 0 3 3 4 w 8 3 3 7 w 5 3 3 9 q 3 4 4 q 8 3 3 q.q.q.q.q.q.",
"q.q.q.q.q.q.q 0 3 3 5 w 7 3 3 8 w 5 4 3 0 0 3 3 4 w 8 3 3 7 w 5 4 3 9 q 3 4 4 q 9 3 q.q.q.q.q.q.",
"q.q.q.q.q.q.3 q 9 3 3 5 w 7 3 2 6 q 4 4 3 9 0 3 4 4 q 7 3 2 6 q 4 3 3 9 q 3 4 4 w 8 q.q.q.q.q.q.",
"q.q.q.q.q.q.3 4 q 0 3 3 5 w 0 q 0 r i 5 7 w r 0 3 7 e y 9 q 0 e p 8 3 3 9 q 3 3 4 q q.q.q.q.q.q.",
"q.q.q.q.q.q.4 4 3 q 9 3 3 7 ,         q %   # w w *   o 8         6 7 3 3 9 q 3 4 4 q.q.q.q.q.q.",
"q.q.q.q.q.q.q 4 3 3 q 9 9 + m _ _ ] I 1 N ] M $ > b ' C j ( _ ' T g 5 8 3 3 9 q 4 3 q.q.q.q.q.q.",
"q.q.q.q.q.q.8 w 4 3 4 9 p   Y 5.U Q 8.Z P 0.$.,   ' 0.| v 7._ R <.[   p 5 3 3 9 q 3 q.q.q.q.q.q.",
"q.q.q.q.q.q.3 8 q 4 4 2 a   P %.  O =.A L %.:.n t :.@.[ v ,.    H -.  0 e 5 3 3 9 q q.q.q.q.q.q.",
"q.q.q.q.q.q.3 3 8 q 4 2 e   K 6.#.;.1.u / } } ( V =.Q O.c 4.R D >.X.  0 7 w 5 3 3 9 q.q.q.q.q.q.",
"q.q.q.q.q.q.6 3 3 8 w 2 e   U &.     ./ E { M ;.*.L H +.l 4.o...' z = 7 3 7 w 5 3 3 q.q.q.q.q.q.",
"q.q.q.q.q.q.w 6 3 3 8 0 r   Y 3.B V 2.! ^ %.  ,.9.y ! %.x 5.w     % r 7 3 3 7 w 5 3 q.q.q.q.q.q.",
"q.q.q.q.q.q.5 w 6 3 3 7 u . N O.o.#.] y Z !   F (   D T k ] g 8 w 8 4 w 8 3 3 7 w 5 q.q.q.q.q.q.",
"q.q.q.q.q.q.3 6 w 6 3 3 8 r &         - $ X u @   8 & % <   2 w q 3 3 4 w 8 3 3 7 w q.q.q.q.q.q.",
"q.q.q.q.q.q.3 3 6 w 6 3 3 8 r q q q p w 6 9 4 y e 2 7 w e q 4 3 0 0 3 3 4 w 8 3 3 6 q.q.q.q.q.q.",
"q.q.q.q.q.q.8 3 3 6 w 6 3 3 8 w 4 3 3 0 0 3 3 5 w 7 3 3 8 w 4 3 3 0 0 3 3 4 w 8 3 3 q.q.q.q.q.q.",
"q.q.q.q.q.q.q 9 3 3 6 w 6 3 3 8 w 4 4 3 q 9 3 3 5 w 7 3 3 7 w 4 3 3 0 0 3 3 4 w 8 3 q.q.q.q.q.q.",
"q.q.q.q.q.q.3 w 9 3 3 6 w 6 3 3 8 q 4 3 3 q 9 3 3 5 w 7 3 3 7 w 4 3 3 0 0 3 3 4 w 7 q.q.q.q.q.q.",
"q.q.q.q.q.q.3 4 q 9 3 3 6 w 6 3 3 8 w 4 3 3 q 9 3 3 5 w 7 3 3 7 w 4 3 3 0 0 3 3 5 q q.q.q.q.q.q.",
"q.q.q.q.q.q.4 4 4 q 9 3 3 6 w 6 3 3 8 w 4 3 3 q 0 3 3 5 w 7 3 3 7 w 4 3 3 0 0 3 4 4 q.q.q.q.q.q.",
"q.q.q.q.q.q.q 4 3 4 q 9 3 3 6 w 6 3 3 8 q 4 3 3 q 9 3 3 5 w 7 3 3 7 w 4 3 3 0 0 3 3 q.q.q.q.q.q.",
"q.q.q.q.q.q.9 q 3 4 4 q 9 3 3 6 w 6 3 3 8 w 4 3 3 q 9 3 3 5 w 7 3 3 7 w 4 3 3 0 q 3 q.q.q.q.q.q.",
"q.q.q.q.q.q.2 9 q 4 3 4 q 9 3 3 6 w 6 3 3 8 q 4 3 3 q 9 3 3 5 w 7 3 3 7 w 5 3 3 0 0 q.q.q.q.q.q.",
"q.q.q.q.q.q.4 3 9 q 4 4 4 q 8 4 3 6 w 6 4 3 8 q 4 4 3 q 9 4 3 5 w 6 4 3 8 w 5 4 3 0 q.q.q.q.q.q."
};
